<svg width="121" height="19" viewBox="0 0 121 19" fill="none" xmlns="http://www.w3.org/2000/svg">
<path d="M13.499 14.4H5.69897L4.21097 18H0.22697L7.71497 1.2H11.555L19.067 18H14.987L13.499 14.4ZM12.275 11.448L9.61097 5.016L6.94697 11.448H12.275ZM35.7479 1.2L28.4759 18H24.6359L17.3879 1.2H21.5879L26.6999 13.2L31.8839 1.2H35.7479ZM40.3775 4.368H35.0015V1.2H49.6415V4.368H44.2655V18H40.3775V4.368ZM59.335 18.288C57.591 18.288 56.015 17.912 54.607 17.16C53.215 16.408 52.119 15.376 51.319 14.064C50.535 12.736 50.143 11.248 50.143 9.6C50.143 7.952 50.535 6.472 51.319 5.16C52.119 3.832 53.215 2.792 54.607 2.04C56.015 1.288 57.591 0.912 59.335 0.912C61.079 0.912 62.647 1.288 64.039 2.04C65.431 2.792 66.527 3.832 67.327 5.16C68.127 6.472 68.527 7.952 68.527 9.6C68.527 11.248 68.127 12.736 67.327 14.064C66.527 15.376 65.431 16.408 64.039 17.16C62.647 17.912 61.079 18.288 59.335 18.288ZM59.335 14.976C60.327 14.976 61.223 14.752 62.023 14.304C62.823 13.84 63.447 13.2 63.895 12.384C64.359 11.568 64.591 10.64 64.591 9.6C64.591 8.56 64.359 7.632 63.895 6.816C63.447 6 62.823 5.368 62.023 4.92C61.223 4.456 60.327 4.224 59.335 4.224C58.343 4.224 57.447 4.456 56.647 4.92C55.847 5.368 55.215 6 54.751 6.816C54.303 7.632 54.079 8.56 54.079 9.6C54.079 10.64 54.303 11.568 54.751 12.384C55.215 13.2 55.847 13.84 56.647 14.304C57.447 14.752 58.343 14.976 59.335 14.976Z" fill="#313133"/>
<path d="M82.501 9.336H86.053V16.152C85.141 16.84 84.085 17.368 82.885 17.736C81.685 18.104 80.477 18.288 79.261 18.288C77.517 18.288 75.949 17.92 74.557 17.184C73.165 16.432 72.069 15.4 71.269 14.088C70.485 12.76 70.093 11.264 70.093 9.6C70.093 7.936 70.485 6.448 71.269 5.136C72.069 3.808 73.173 2.776 74.581 2.04C75.989 1.288 77.573 0.912 79.333 0.912C80.805 0.912 82.141 1.16 83.341 1.656C84.541 2.152 85.549 2.872 86.365 3.816L83.869 6.12C82.669 4.856 81.221 4.224 79.525 4.224C78.453 4.224 77.501 4.448 76.669 4.896C75.837 5.344 75.189 5.976 74.725 6.792C74.261 7.608 74.029 8.544 74.029 9.6C74.029 10.64 74.261 11.568 74.725 12.384C75.189 13.2 75.829 13.84 76.645 14.304C77.477 14.752 78.421 14.976 79.477 14.976C80.597 14.976 81.605 14.736 82.501 14.256V9.336ZM102.373 14.88V18H89.3647V1.2H102.061V4.32H93.2287V7.968H101.029V10.992H93.2287V14.88H102.373ZM120.574 1.2V18H117.382L109.006 7.8V18H105.166V1.2H108.382L116.734 11.4V1.2H120.574Z" fill="white"/>
</svg>
