<svg width="12" height="24" viewBox="0 0 12 24" fill="none" xmlns="http://www.w3.org/2000/svg">
<path d="M11.2 6.97974C11.6416 6.97974 12 6.65014 12 6.24375V5.46655C12 5.05936 11.6416 4.72976 11.2 4.72976C11.2 -1.57659 0.8 -1.57659 0.8 4.72976C0.3584 4.72976 0 5.05936 0 5.46655V6.24375C0 6.65014 0.3584 6.97974 0.8 6.97974H0.9124V21.75H0.8C0.3584 21.75 0 22.0796 0 22.486V23.2632C0 23.6696 0.3584 24 0.8 24H11.2C11.6416 24 12 23.6696 12 23.2632V22.486C12 22.0796 11.6416 21.75 11.2 21.75H11.0876V6.97974H11.2ZM1.5656 15.5125V13.1533C4.522 12.4297 7.478 9.62292 10.4344 8.89933V11.2577C7.478 11.9813 4.522 14.7885 1.5656 15.5125ZM10.4344 13.3681V15.7265C7.478 16.4501 4.522 19.2568 1.5656 19.9804V17.6221C4.522 16.8977 7.478 14.0909 10.4344 13.3681ZM2.6836 21.75C5.2672 20.7164 7.8508 18.4996 10.4344 17.868V20.2264C9.1148 20.5496 8.0476 21.1352 7.008 21.75H2.6836ZM1.5656 11.0125V8.65333C2.7888 8.35413 4.0116 7.69734 5.2344 6.97974H9.7108C6.9956 7.93053 4.2804 10.3473 1.5656 11.0125Z" fill="white"/>
</svg>
