<svg width="27" height="27" viewBox="0 0 27 27" fill="none" xmlns="http://www.w3.org/2000/svg">
<g filter="url(#filter0_d)">
<path d="M11.1788 17.922L14.7408 16.41C14.8058 16.8479 14.7236 17.2949 14.5071 17.6811C14.2906 18.0672 13.952 18.3705 13.5445 18.5435C13.137 18.7165 12.6837 18.7493 12.2555 18.6368C11.8273 18.5243 11.4486 18.2729 11.1788 17.922ZM16.6108 0.0919829C18.6968 1.23198 20.2628 2.69498 21.2928 4.47898C22.3228 6.26298 22.8078 8.35098 22.7518 10.727C22.7471 10.9259 22.6637 11.1148 22.5197 11.2522C22.3758 11.3896 22.1832 11.4641 21.9843 11.4595C21.7854 11.4548 21.5965 11.3714 21.4591 11.2274C21.3217 11.0835 21.2471 10.8909 21.2518 10.692C21.3018 8.57998 20.8798 6.76398 19.9938 5.22898C19.1078 3.69398 17.7448 2.42098 15.8918 1.40898C15.7171 1.3135 15.5876 1.15256 15.5316 0.961554C15.4756 0.770548 15.4978 0.565128 15.5933 0.390483C15.6888 0.215838 15.8497 0.086274 16.0407 0.0302944C16.2317 -0.0256852 16.4371 -0.00349508 16.6118 0.0919829H16.6108ZM7.46079 4.51298C8.83674 3.89857 10.3973 3.84138 11.8145 4.35345C13.2317 4.86552 14.3953 5.90697 15.0608 7.25898L15.1588 7.46898L16.4468 10.36L18.1448 11.83C18.2378 11.91 18.3178 12.004 18.4108 12.155L18.4698 12.269C18.5364 12.4191 18.5727 12.5809 18.5768 12.7452C18.5808 12.9094 18.5524 13.0728 18.4933 13.226C18.4341 13.3792 18.3453 13.5193 18.232 13.6382C18.1187 13.7571 17.983 13.8525 17.8328 13.919L7.50479 18.488C7.31454 18.572 7.10633 18.6072 6.89903 18.5905C6.69173 18.5737 6.49189 18.5055 6.31761 18.392C6.14333 18.2785 6.00013 18.1233 5.90098 17.9405C5.80183 17.7576 5.74986 17.553 5.74979 17.345L5.74879 15.002L4.50679 12.21C4.19429 11.5108 4.02279 10.7569 4.00212 9.99139C3.98145 9.22587 4.11201 8.46378 4.38632 7.74879C4.66063 7.03381 5.0733 6.37996 5.6007 5.8247C6.12809 5.26945 6.75985 4.8237 7.45979 4.51298H7.46079ZM5.87679 11.601L7.24879 14.684V16.961L16.8648 12.706L15.2118 11.276L13.7948 8.09298L13.7098 7.91098C13.2143 6.90989 12.3503 6.13959 11.2991 5.76168C10.248 5.38376 9.09132 5.42759 8.07179 5.88398C7.55156 6.11437 7.08194 6.44521 6.68987 6.85752C6.2978 7.26983 5.99099 7.7555 5.78706 8.28665C5.58312 8.81781 5.48607 9.38401 5.50147 9.95277C5.51687 10.5215 5.64441 11.0816 5.87679 11.601ZM16.3738 3.69298C17.3408 4.21998 18.1158 4.98698 18.6898 5.98198C19.2638 6.97698 19.5408 8.03198 19.5138 9.13198C19.5114 9.23047 19.4897 9.32754 19.4498 9.41763C19.4099 9.50772 19.3527 9.58907 19.2814 9.65704C19.2101 9.72501 19.1261 9.77827 19.0342 9.81378C18.9423 9.84929 18.8443 9.86635 18.7458 9.86398C18.6473 9.86162 18.5502 9.83988 18.4601 9.8C18.3701 9.76013 18.2887 9.7029 18.2207 9.63159C18.1528 9.56027 18.0995 9.47626 18.064 9.38437C18.0285 9.29247 18.0114 9.19447 18.0138 9.09598C18.0338 8.27398 17.8288 7.49098 17.3908 6.73198C16.9528 5.97198 16.3768 5.40198 15.6558 5.00998C15.4811 4.91477 15.3515 4.75408 15.2953 4.56326C15.2391 4.37244 15.2611 4.16713 15.3563 3.99248C15.4515 3.81784 15.6122 3.68817 15.803 3.632C15.9938 3.57583 16.1991 3.59777 16.3738 3.69298Z" fill="white"/>
</g>
<defs>
<filter id="filter0_d" x="0" y="0" width="26.7561" height="26.7024" filterUnits="userSpaceOnUse" color-interpolation-filters="sRGB">
<feFlood flood-opacity="0" result="BackgroundImageFix"/>
<feColorMatrix in="SourceAlpha" type="matrix" values="0 0 0 0 0 0 0 0 0 0 0 0 0 0 0 0 0 0 127 0" result="hardAlpha"/>
<feOffset dy="4"/>
<feGaussianBlur stdDeviation="2"/>
<feComposite in2="hardAlpha" operator="out"/>
<feColorMatrix type="matrix" values="0 0 0 0 0 0 0 0 0 0 0 0 0 0 0 0 0 0 0.25 0"/>
<feBlend mode="normal" in2="BackgroundImageFix" result="effect1_dropShadow"/>
<feBlend mode="normal" in="SourceGraphic" in2="effect1_dropShadow" result="shape"/>
</filter>
</defs>
</svg>
