<svg width="16" height="16" viewBox="0 0 16 16" fill="none" xmlns="http://www.w3.org/2000/svg">
<path d="M1.29279 1.29259C1.48031 1.10512 1.73462 0.999806 1.99979 0.999806C2.26495 0.999806 2.51926 1.10512 2.70679 1.29259L7.99979 6.58559L13.2928 1.29259C13.385 1.19708 13.4954 1.1209 13.6174 1.06849C13.7394 1.01608 13.8706 0.988496 14.0034 0.987342C14.1362 0.986189 14.2678 1.01149 14.3907 1.06177C14.5136 1.11205 14.6253 1.18631 14.7192 1.2802C14.8131 1.37409 14.8873 1.48574 14.9376 1.60864C14.9879 1.73154 15.0132 1.86321 15.012 1.99599C15.0109 2.12877 14.9833 2.25999 14.9309 2.382C14.8785 2.504 14.8023 2.61435 14.7068 2.70659L9.41379 7.99959L14.7068 13.2926C14.8889 13.4812 14.9897 13.7338 14.9875 13.996C14.9852 14.2582 14.88 14.509 14.6946 14.6944C14.5092 14.8798 14.2584 14.985 13.9962 14.9873C13.734 14.9895 13.4814 14.8888 13.2928 14.7066L7.99979 9.41359L2.70679 14.7066C2.51818 14.8888 2.26558 14.9895 2.00339 14.9873C1.74119 14.985 1.49038 14.8798 1.30497 14.6944C1.11956 14.509 1.01439 14.2582 1.01211 13.996C1.00983 13.7338 1.11063 13.4812 1.29279 13.2926L6.58579 7.99959L1.29279 2.70659C1.10532 2.51907 1 2.26476 1 1.99959C1 1.73443 1.10532 1.48012 1.29279 1.29259Z" fill="#FA0000"/>
</svg>
