<svg width="33" height="24" viewBox="0 0 33 24" fill="none" xmlns="http://www.w3.org/2000/svg">
<g filter="url(#filter0_d)">
<path d="M28.9095 9.011C28.7219 6.9905 28.413 6.597 28.2964 6.449C28.0281 6.107 27.5989 5.8835 27.1446 5.649C27.1189 5.63596 27.0968 5.61737 27.0798 5.5947C27.0629 5.57203 27.0517 5.54589 27.0471 5.51835C27.0425 5.49081 27.0447 5.46262 27.0534 5.43601C27.0621 5.4094 27.0771 5.38509 27.0972 5.365C27.1813 5.28311 27.246 5.18472 27.2867 5.07657C27.3275 4.96842 27.3433 4.85309 27.3332 4.7385C27.3136 4.53531 27.2152 4.3466 27.0574 4.20981C26.8997 4.07301 26.6941 3.99813 26.4815 4H25.6689C25.6341 4.0002 25.5993 4.00237 25.5647 4.0065C25.541 3.99662 25.5164 3.98876 25.4913 3.983C25.0099 3.0065 24.351 1.6695 22.9852 1.017C20.9593 0.0499998 17.2275 0 16.4983 0C15.769 0 12.0372 0.0499999 10.014 1.0155C8.64816 1.668 7.98921 3.005 7.50789 3.9815L7.50372 3.9895C7.47972 3.99274 7.45614 3.99844 7.4334 4.0065C7.39883 4.00237 7.36405 4.0002 7.32922 4H6.51503C6.30245 3.99813 6.09689 4.07301 5.93913 4.20981C5.78137 4.3466 5.68294 4.53531 5.66335 4.7385C5.65409 4.85282 5.67067 4.96771 5.71193 5.07532C5.7532 5.18293 5.81818 5.28072 5.90244 5.362C5.9226 5.38209 5.93762 5.4064 5.94632 5.43301C5.95501 5.45962 5.95715 5.48781 5.95255 5.51535C5.94795 5.54289 5.93675 5.56903 5.91983 5.5917C5.90291 5.61437 5.88073 5.63296 5.85504 5.646C5.40081 5.882 4.96949 6.1055 4.70331 6.446C4.58663 6.596 4.27825 6.9875 4.0902 9.008C3.98602 10.145 3.97039 11.322 4.05217 12.08C4.22355 13.655 4.54495 14.607 4.5585 14.6465C4.60782 14.7902 4.6986 14.9176 4.82031 15.0138C4.94202 15.11 5.08966 15.1711 5.2461 15.19V15.2C5.2461 15.4122 5.33391 15.6157 5.49021 15.7657C5.64651 15.9157 5.85851 16 6.07955 16H8.99665C9.2177 16 9.42969 15.9157 9.58599 15.7657C9.7423 15.6157 9.83011 15.4122 9.83011 15.2C10.2786 15.2 10.5906 15.123 10.9214 15.041C11.399 14.9175 11.8871 14.8353 12.38 14.7955C13.9693 14.65 15.5497 14.6 16.4983 14.6C17.4276 14.6 19.0778 14.65 20.6697 14.7955C21.1645 14.8354 21.6546 14.9179 22.134 15.042C22.4507 15.12 22.7513 15.192 23.1675 15.1995C23.1675 15.4117 23.2553 15.6152 23.4116 15.7652C23.5679 15.9152 23.7799 15.9995 24.0009 15.9995H26.918C27.1391 15.9995 27.3511 15.9152 27.5074 15.7652C27.6637 15.6152 27.7515 15.4117 27.7515 15.1995V15.1935C27.9083 15.175 28.0564 15.114 28.1785 15.0178C28.3006 14.9216 28.3917 14.794 28.4412 14.65C28.4547 14.6105 28.7761 13.6585 28.9475 12.0835C29.0293 11.325 29.0147 10.15 28.9095 9.011ZM9.01436 4.6655C9.43109 3.8155 9.90772 2.8535 10.7563 2.448C11.9825 1.862 14.524 1.598 16.4983 1.598C18.4725 1.598 21.014 1.86 22.2403 2.448C23.0888 2.8535 23.5634 3.816 23.9822 4.6655L24.0343 4.774C24.0647 4.83577 24.0782 4.904 24.0734 4.97218C24.0686 5.04036 24.0456 5.10622 24.0068 5.16348C23.9679 5.22074 23.9144 5.26749 23.8514 5.29927C23.7884 5.33104 23.7179 5.34679 23.6467 5.345C21.9157 5.3 18.2694 5.156 16.4983 5.156C14.7272 5.156 11.0808 5.3035 9.34722 5.3485C9.27605 5.35029 9.20559 5.33454 9.14256 5.30276C9.07952 5.27099 9.02602 5.22424 8.98716 5.16698C8.9483 5.10972 8.92536 5.04386 8.92055 4.97568C8.91574 4.9075 8.9292 4.83927 8.95966 4.7775C8.9779 4.7405 8.99717 4.703 9.01436 4.6655ZM9.63581 8.647C8.73974 8.75052 7.83794 8.80161 6.93541 8.8C6.38324 8.8 5.81389 8.65 5.70814 8.178C5.63574 7.8605 5.64355 7.682 5.68262 7.5025C5.71544 7.35 5.76753 7.239 6.02798 7.2C6.70517 7.1 7.08387 7.2255 8.19236 7.539C8.92737 7.7465 9.45765 8.023 9.75978 8.242C9.91137 8.35 9.83063 8.632 9.63581 8.647ZM21.1677 12.747C20.4822 12.822 19.1112 12.7945 16.5139 12.7945C13.9166 12.7945 12.5461 12.822 11.8606 12.747C11.1532 12.6715 10.2515 12.0295 10.8672 11.4575C11.2772 11.0805 12.2336 10.7985 13.5072 10.64C14.7808 10.4815 15.32 10.4 16.5087 10.4C17.6974 10.4 18.1819 10.45 19.5102 10.6405C20.8385 10.831 21.8423 11.1165 22.1501 11.458C22.7117 12.07 21.8746 12.6675 21.1677 12.75V12.747ZM27.2884 8.1775C27.1842 8.6515 26.6112 8.7995 26.0611 8.7995C25.1413 8.79971 24.2223 8.74862 23.3087 8.6465C23.1493 8.632 23.0753 8.3635 23.2368 8.2415C23.5342 8.017 24.0702 7.746 24.8042 7.5385C25.9127 7.225 26.5518 7.0995 27.1009 7.204C27.2348 7.2295 27.3056 7.3675 27.3139 7.454C27.3507 7.69485 27.342 7.94008 27.2884 8.178V8.1775Z" fill="white"/>
</g>
<defs>
<filter id="filter0_d" x="0" y="0" width="33" height="24" filterUnits="userSpaceOnUse" color-interpolation-filters="sRGB">
<feFlood flood-opacity="0" result="BackgroundImageFix"/>
<feColorMatrix in="SourceAlpha" type="matrix" values="0 0 0 0 0 0 0 0 0 0 0 0 0 0 0 0 0 0 127 0" result="hardAlpha"/>
<feOffset dy="4"/>
<feGaussianBlur stdDeviation="2"/>
<feComposite in2="hardAlpha" operator="out"/>
<feColorMatrix type="matrix" values="0 0 0 0 0 0 0 0 0 0 0 0 0 0 0 0 0 0 0.25 0"/>
<feBlend mode="normal" in2="BackgroundImageFix" result="effect1_dropShadow"/>
<feBlend mode="normal" in="SourceGraphic" in2="effect1_dropShadow" result="shape"/>
</filter>
</defs>
</svg>
