<svg width="16" height="17" viewBox="0 0 16 17" fill="none" xmlns="http://www.w3.org/2000/svg">
<path d="M13.3856 8.25L7.16524 0.302344C7.06915 0.180469 7.15587 0 7.3129 0H9.12462C9.23946 0 9.34962 0.0539064 9.41993 0.142969L15.4035 7.78828C15.5072 7.92032 15.5635 8.08332 15.5635 8.25117C15.5635 8.41902 15.5072 8.58202 15.4035 8.71406L9.41993 16.357C9.34962 16.4484 9.23946 16.5 9.12462 16.5H7.3129C7.15587 16.5 7.06915 16.3195 7.16524 16.1977L13.3856 8.25ZM6.26056 8.25L0.0402441 0.302344C-0.05585 0.180469 0.0308695 0 0.187901 0H1.99962C2.11446 0 2.22462 0.0539064 2.29493 0.142969L8.27853 7.78828C8.38215 7.92032 8.43848 8.08332 8.43848 8.25117C8.43848 8.41902 8.38215 8.58202 8.27853 8.71406L2.29493 16.357C2.22462 16.4484 2.11446 16.5 1.99962 16.5H0.187901C0.0308695 16.5 -0.05585 16.3195 0.0402441 16.1977L6.26056 8.25Z" fill="white"/>
</svg>
