<svg width="17" height="22" viewBox="0 0 17 22" fill="none" xmlns="http://www.w3.org/2000/svg">
<path d="M14.45 11.0498C15.1263 11.0498 15.7749 11.3185 16.2531 11.7967C16.7313 12.2749 17 12.9235 17 13.5998H8.5V15.2998H16.932C16.8419 15.8778 16.6583 16.4524 16.388 16.9998H8.5V18.6998H15.1793C13.7241 20.2009 11.4427 21.2498 8.5 21.2498C3.162 21.2498 0 17.8005 0 14.4498V13.5998C0 12.9235 0.26866 12.2749 0.746878 11.7967C1.2251 11.3185 1.8737 11.0498 2.55 11.0498H14.45Z" fill="white"/>
<path d="M13.0985 3.825C13.2015 4.38698 13.2015 4.96302 13.0985 5.525H8.5V7.225H12.4185C11.8688 8.06967 11.0609 8.7141 10.1151 9.06222C9.16933 9.41035 8.1364 9.44353 7.17024 9.15684C6.20409 8.87014 5.35645 8.2789 4.75365 7.47126C4.15086 6.66361 3.8252 5.6828 3.8252 4.675C3.8252 3.6672 4.15086 2.68639 4.75365 1.87874C5.35645 1.0711 6.20409 0.479864 7.17024 0.193164C8.1364 -0.0935349 9.16933 -0.0603486 10.1151 0.287777C11.0609 0.635902 11.8688 1.28033 12.4185 2.125H8.5V3.825H13.0985Z" fill="white"/>
</svg>
