<svg width="28" height="28" viewBox="0 0 28 28" fill="none" xmlns="http://www.w3.org/2000/svg">
<path d="M5.83333 25.6666H22.1667C23.4535 25.6666 24.5 24.6201 24.5 23.3332V12.8332C24.5002 12.68 24.47 12.5283 24.4114 12.3867C24.3527 12.2452 24.2667 12.1166 24.1582 12.0084L14.8248 2.67508C14.7166 2.56664 14.588 2.48061 14.4465 2.42192C14.3049 2.36322 14.1532 2.33301 14 2.33301C13.8468 2.33301 13.6951 2.36322 13.5535 2.42192C13.412 2.48061 13.2834 2.56664 13.1752 2.67508L3.84183 12.0084C3.73334 12.1166 3.64728 12.2452 3.58862 12.3867C3.52996 12.5283 3.49984 12.68 3.5 12.8332V23.3332C3.5 24.6201 4.5465 25.6666 5.83333 25.6666ZM11.6667 23.3332V17.4999H16.3333V23.3332H11.6667ZM5.83333 13.3162L14 5.14958L22.1667 13.3162L22.1678 23.3332H18.6667V17.4999C18.6667 16.2131 17.6202 15.1666 16.3333 15.1666H11.6667C10.3798 15.1666 9.33333 16.2131 9.33333 17.4999V23.3332H5.83333V13.3162Z" fill="white"/>
</svg>
