<svg width="18" height="18" viewBox="0 0 18 18" fill="none" xmlns="http://www.w3.org/2000/svg">
<path d="M16.0714 0H1.92857C0.863839 0 0 0.863839 0 1.92857V16.0714C0 17.1362 0.863839 18 1.92857 18H16.0714C17.1362 18 18 17.1362 18 16.0714V1.92857C18 0.863839 17.1362 0 16.0714 0ZM9.64286 11.5714H7.71429V13.5C7.71429 13.8536 7.425 14.1429 7.07143 14.1429H5.78571C5.43214 14.1429 5.14286 13.8536 5.14286 13.5V4.5C5.14286 4.14643 5.43214 3.85714 5.78571 3.85714H9.64286C11.7683 3.85714 13.5 5.58884 13.5 7.71429C13.5 9.83973 11.7683 11.5714 9.64286 11.5714ZM9.64286 6.42857H7.71429V9H9.64286C10.35 9 10.9286 8.42143 10.9286 7.71429C10.9286 7.00714 10.35 6.42857 9.64286 6.42857Z" fill="white"/>
</svg>
