<svg width="36" height="35" viewBox="0 0 36 35" fill="none" xmlns="http://www.w3.org/2000/svg">
<path fill-rule="evenodd" clip-rule="evenodd" d="M0 17.5C0 12.8587 1.85469 8.40752 5.15605 5.12563C8.45741 1.84374 12.935 0 17.6039 0C22.2727 0 26.7503 1.84374 30.0517 5.12563C33.353 8.40752 35.2077 12.8587 35.2077 17.5C35.2077 22.1413 33.353 26.5925 30.0517 29.8744C26.7503 33.1563 22.2727 35 17.6039 35C12.935 35 8.45741 33.1563 5.15605 29.8744C1.85469 26.5925 0 22.1413 0 17.5ZM17.6039 2.51019C14.6812 2.51029 11.8215 3.35476 9.37276 4.94086C6.924 6.52696 4.99171 8.78633 3.81094 11.4441C2.63018 14.1019 2.25184 17.0435 2.72195 19.9111C3.19206 22.7787 4.49036 25.4487 6.45891 27.5963C7.65401 25.7354 9.30167 24.204 11.2496 23.1437C13.1976 22.0833 15.383 21.5281 17.6039 21.5295C22.2872 21.5295 26.4018 23.9499 28.7488 27.5963C30.7173 25.4487 32.0157 22.7787 32.4858 19.9111C32.9559 17.0435 32.5775 14.1019 31.3968 11.4441C30.216 8.78633 28.2837 6.52696 25.835 4.94086C23.3862 3.35476 20.5265 2.51029 17.6039 2.51019ZM26.859 29.3349C25.9184 27.7234 24.5683 26.386 22.9439 25.4566C21.3196 24.5273 19.478 24.0386 17.6039 24.0397C15.7297 24.0386 13.8882 24.5273 12.2638 25.4566C10.6394 26.386 9.28932 27.7234 8.34874 29.3349C10.9928 31.3845 14.251 32.4951 17.6039 32.4898C21.0911 32.4898 24.302 31.3113 26.859 29.3349ZM11.3576 14.8709C11.3576 13.2241 12.0157 11.6447 13.1871 10.4802C14.3585 9.31569 15.9472 8.66148 17.6039 8.66148C19.2605 8.66148 20.8492 9.31569 22.0206 10.4802C23.192 11.6447 23.8501 13.2241 23.8501 14.8709C23.8501 16.5177 23.192 18.0971 22.0206 19.2616C20.8492 20.4261 19.2605 21.0803 17.6039 21.0803C15.9472 21.0803 14.3585 20.4261 13.1871 19.2616C12.0157 18.0971 11.3576 16.5177 11.3576 14.8709ZM17.6039 11.1717C17.1152 11.1717 16.6313 11.2674 16.1798 11.4533C15.7283 11.6392 15.3181 11.9116 14.9726 12.2552C14.627 12.5987 14.3529 13.0065 14.1659 13.4553C13.9789 13.9041 13.8827 14.3851 13.8827 14.8709C13.8827 15.3567 13.9789 15.8377 14.1659 16.2865C14.3529 16.7353 14.627 17.1431 14.9726 17.4867C15.3181 17.8302 15.7283 18.1026 16.1798 18.2885C16.6313 18.4745 17.1152 18.5701 17.6039 18.5701C18.5908 18.5701 19.5373 18.1804 20.2351 17.4867C20.933 16.7929 21.325 15.852 21.325 14.8709C21.325 13.8898 20.933 12.9489 20.2351 12.2552C19.5373 11.5614 18.5908 11.1717 17.6039 11.1717Z" fill="black"/>
</svg>
