<svg width="46" height="23" viewBox="0 0 46 23" fill="none" xmlns="http://www.w3.org/2000/svg">
<path d="M9.19322 11.5002C9.19322 12.3742 9.84183 13.0964 10.6813 13.2091L10.9159 13.2252H40.1125L35.0157 18.3312C34.7235 18.6233 34.5459 19.0105 34.5151 19.4225C34.4843 19.8345 34.6023 20.2438 34.8478 20.5761L35.0157 20.7693C35.6275 21.3834 36.5843 21.4363 37.2582 20.9372L37.4514 20.7693L45.4946 12.7192C45.7868 12.4271 45.9644 12.0399 45.9952 11.6279C46.026 11.216 45.908 10.8066 45.6625 10.4743L45.4946 10.2811L37.4514 2.23103C37.1446 1.91986 36.731 1.73692 36.2944 1.71925C35.8577 1.70157 35.4307 1.85048 35.0998 2.13583C34.7688 2.42118 34.5587 2.82163 34.5119 3.2561C34.4651 3.69057 34.5852 4.12659 34.8478 4.47586L35.0157 4.66906L40.1125 9.77513H10.9159C10.4584 9.77513 10.0197 9.95687 9.69617 10.2804C9.37267 10.6039 9.19092 11.0426 9.19092 11.5002H9.19322ZM9.20833e-07 11.5002C9.20833e-07 17.8505 5.14517 23.0003 11.491 23.0003C13.833 22.9992 16.1188 22.2828 18.0425 20.9469C19.9662 19.611 21.436 17.7194 22.2551 15.5252H18.4577C17.5703 17.0559 16.2031 18.2514 14.5678 18.9268C12.9324 19.6023 11.1201 19.72 9.41111 19.2617C7.70215 18.8034 6.19184 17.7947 5.11386 16.3917C4.03588 14.9887 3.45031 13.2695 3.44775 11.5002C3.45031 9.73082 4.03588 8.01164 5.11386 6.60861C6.19184 5.20558 7.70215 4.19689 9.41111 3.73862C11.1201 3.28035 12.9324 3.39804 14.5678 4.07347C16.2031 4.7489 17.5703 5.94444 18.4577 7.4751H22.2574C21.4382 5.28059 19.968 3.38872 18.0439 2.05279C16.1197 0.716866 13.8334 0.000637674 11.491 0C9.98134 0.000603968 8.48662 0.298544 7.09215 0.876808C5.69767 1.45507 4.43075 2.30234 3.36372 3.37022C2.29668 4.43811 1.45043 5.70571 0.873287 7.10065C0.29614 8.49558 -0.000603289 9.99054 9.20833e-07 11.5002Z" fill="#F39C12"/>
</svg>
